<svg width="24" height="24" viewBox="0 0 24 24" fill="none" xmlns="http://www.w3.org/2000/svg">
<path d="M8 4V16C8 17.1046 8.89543 18 10 18H20C21.1046 18 22 17.1046 22 16V7.248C22 6.73046 21.7952 6.23408 21.4307 5.867L16.131 0.565C15.7652 0.198524 15.2693 -0.00603951 14.752 0H10C8.89543 0 8 0.895431 8 2V4Z" stroke="#007AFF" stroke-width="2" stroke-linecap="round" stroke-linejoin="round"/>
<path d="M16 18V20C16 21.1046 15.1046 22 14 22H4C2.89543 22 2 21.1046 2 20V8C2 6.89543 2.89543 6 4 6H6" stroke="#007AFF" stroke-width="2" stroke-linecap="round" stroke-linejoin="round"/>
</svg>
