<svg width="64" height="64" viewBox="0 0 64 64" fill="none" xmlns="http://www.w3.org/2000/svg">
<circle cx="32" cy="32" r="32" fill="#F2F2F7"/>
<path d="M32 18C25.373 18 20 23.373 20 30V38C20 44.627 25.373 50 32 50C38.627 50 44 44.627 44 38V30C44 23.373 38.627 18 32 18ZM32 46C27.582 46 24 42.418 24 38V30C24 25.582 27.582 22 32 22C36.418 22 40 25.582 40 30V38C40 42.418 36.418 46 32 46ZM32 26C29.791 26 28 27.791 28 30C28 32.209 29.791 34 32 34C34.209 34 36 32.209 36 30C36 27.791 34.209 26 32 26Z" fill="#C7C7CC"/>
</svg>
