<svg width="24" height="24" viewBox="0 0 24 24" fill="none" xmlns="http://www.w3.org/2000/svg">
<path d="M19.14 12.94C19.16 12.78 19.16 12.61 19.16 12.44C19.16 12.27 19.16 12.1 19.14 11.94L21.41 10.17C21.6 10.02 21.66 9.76 21.51 9.57L19.38 5.89C19.23 5.7 18.97 5.64 18.78 5.79L16.11 6.87C15.58 6.46 15 6.12 14.38 5.86L13.98 2.99C13.95 2.75 13.75 2.58 13.51 2.58H9.24C9 2.58 8.8 2.75 8.77 2.99L8.37 5.86C7.75 6.12 7.17 6.46 6.64 6.87L3.97 5.79C3.78 5.64 3.52 5.7 3.37 5.89L1.24 9.57C1.09 9.76 1.15 10.02 1.34 10.17L3.61 11.94C3.59 12.1 3.59 12.27 3.59 12.44C3.59 12.61 3.59 12.78 3.61 12.94L1.34 14.71C1.15 14.86 1.09 15.12 1.24 15.31L3.37 18.99C3.52 19.18 3.78 19.24 3.97 19.09L6.64 18.01C7.17 18.42 7.75 18.76 8.37 19.02L8.77 21.89C8.8 22.13 9 22.3 9.24 22.3H13.51C13.75 22.3 13.95 22.13 13.98 21.89L14.38 19.02C15 18.76 15.58 18.42 16.11 18.01L18.78 19.09C18.97 19.24 19.23 19.18 19.38 18.99L21.51 15.31C21.66 15.12 21.6 14.86 21.41 14.71L19.14 12.94ZM11.37 15.71C9.48 15.71 7.95 14.18 7.95 12.29C7.95 10.4 9.48 8.87 11.37 8.87C13.26 8.87 14.79 10.4 14.79 12.29C14.79 14.18 13.26 15.71 11.37 15.71Z" fill="#8E8E93"/>
</svg>
