<svg version="1.0" xmlns="http://www.w3.org/2000/svg" width="800.000000" height="800.000000" viewBox="0 0 800.000000 800.000000" preserveAspectRatio="xMidYMid meet">
  <metadata>
    <rdf:RDF xmlns:rdf="http://www.w3.org/1999/02/22-rdf-syntax-ns#" xmlns:rdfs="http://www.w3.org/2000/01/rdf-schema#" xmlns:dc="http://purl.org/dc/elements/1.1/">
      <rdf:Description dc:format="image/svg+xml" dc:Label="1" dc:ContentProducer="001191330110MACRLGPT8B00000" dc:ProduceID="368183996" dc:ReservedCode1="QV90zWHEhqoeyRdh5iVYDQ/SwQF2iIS8heoUZyaqupw=" dc:ContentPropagator="001191330110MACRLGPT8B00000" dc:PropagateID="368183996" dc:ReservedCode2="QV90zWHEhqoeyRdh5iVYDQ/SwQF2iIS8heoUZyaqupw="/>
    </rdf:RDF>
  </metadata>
  <g transform="translate(186.612228,625.064060) scale(0.054851,-0.054851)" fill="#000000" stroke="none">
    <path d="M3765 7874 c-910 -52 -1635 -326 -2320 -877 -142 -115 -432 -408 -557 -565 -350 -439 -603 -947 -728 -1463 -75 -315 -104 -597 -97 -954 7 -346 32 -539 107 -830 57 -219 119 -400 194 -570 368 -833 1008 -1504 1809 -1896 117 -57 133 -62 191 -62 74 2 118 18 170 63 114 100 120 275 13 382 -19 19 -97 68 -173 108 -487 256 -839 555 -1160 985 -323 432 -526 943 -606 1525 -20 149 -17 633 5 790 71 491 250 956 528 1372 162 241 447 550 674 732 515 410 1109 646 1795 712 192 19 522 14 709 -11 903 -117 1680 -570 2233 -1300 223 -294 413 -676 517 -1036 143 -493 159 -1085 44 -1584 -173 -757 -618 -1430 -1257 -1903 -286 -212 -656 -391 -1011 -490 -354 -100 -665 -136 -1104 -130 l-236 3 -51 -27 c-102 -54 -149 -139 -142 -256 4 -87 41 -152 112 -199 69 -47 99 -52 321 -59 953 -31 1842 255 2544 818 371 297 695 673 926 1073 286 496 448 1013 496 1585 16 194 6 595 -20 789 -74 545 -268 1062 -576 1536 -363 559 -901 1038 -1511 1343 -494 248 -1036 381 -1604 395 -96 2 -202 3 -235 1z"/>
    <path d="M5235 5956 c-33 -7 -175 -55 -315 -106 -140 -50 -336 -121 -435 -155 -185 -65 -563 -200 -925 -330 -113 -40 -277 -99 -365 -130 -88 -31 -189 -67 -225 -80 -36 -13 -299 -108 -585 -210 -286 -103 -545 -200 -576 -216 -299 -159 -412 -509 -262 -812 47 -94 162 -211 251 -256 78 -39 150 -65 697 -253 242 -83 447 -156 455 -162 18 -14 140 -140 665 -691 226 -236 435 -455 465 -485 239 -240 596 -261 847 -51 98 82 167 197 212 356 26 92 129 470 181 665 22 85 47 178 55 205 21 71 165 602 350 1295 36 135 91 336 121 447 90 332 98 390 70 524 -43 203 -213 380 -416 434 -81 22 -196 26 -265 11z m-560 -783 c-16 -15 -174 -148 -350 -297 -176 -149 -533 -453 -794 -676 -260 -223 -477 -406 -481 -408 -7 -3 -700 232 -918 310 -91 33 -119 60 -108 103 4 14 16 31 29 39 22 14 219 87 817 301 179 64 375 134 435 156 327 118 1391 498 1395 498 3 0 -8 -12 -25 -26z m593 -270 c-11 -43 -53 -204 -94 -358 -42 -154 -87 -323 -100 -375 -14 -52 -63 -234 -109 -405 -71 -263 -166 -614 -282 -1045 -76 -284 -84 -300 -155 -300 -38 0 -47 5 -107 67 -126 129 -856 896 -892 937 l-37 41 247 211 c480 412 693 593 1051 894 200 168 390 328 424 357 34 29 64 53 67 53 4 0 -2 -35 -13 -77z"/>
  </g>
</svg>